# xmcd
#
# Track frame offsets:
#	150
#	9970
#	20080
#	31617
#	42275
#	53557
#	61935
#	72820
#	82082
#	91037
#	102640
#	115055
#	124607
#	133960
#	145895
#	155727
#	165115
#	175195
#	186152
#	193885
#
# Disc length: 2720 seconds
#
# Revision: 1
# Processed by: cddbd v1.5.2PL0 Copyright (c) Steve Scherf et al.
# Submitted via: audiograbber 1.83.01
#
DISCID=080a9e14
DTITLE=Johnny Cash - The Complete Early Hits Collection D2
DYEAR=1900
DGENRE=
TTITLE0=Rock Island Line
TTITLE1=Hey Porter
TTITLE2=Big River
TTITLE3=Train Of Love
TTITLE4=Wide Open Road
TTITLE5=Wreck Of The Old '97
TTITLE6=(I Heard That) Lonesome Whistle
TTITLE7=Blue Train
TTITLE8=Life Goes On
TTITLE9=Port Of Lonely Hearts
TTITLE10=Give My Love To Rose
TTITLE11=New Mexico
TTITLE12=I Couldn't Keep From Crying
TTITLE13=Doin' My Time
TTITLE14=Story Of A Broken Heart
TTITLE15=Down The Street to 301
TTITLE16=I Could Never Be Ashamed Of You
TTITLE17=Balshazzar
TTITLE18=If The Good Lord's Willing
TTITLE19=I Was There When It Happened
EXTD=
EXTT0=
EXTT1=
EXTT2=
EXTT3=
EXTT4=
EXTT5=
EXTT6=
EXTT7=
EXTT8=
EXTT9=
EXTT10=
EXTT11=
EXTT12=
EXTT13=
EXTT14=
EXTT15=
EXTT16=
EXTT17=
EXTT18=
EXTT19=
PLAYORDER=
